<svg width="377" height="192" viewBox="0 0 377 192" fill="none" xmlns="http://www.w3.org/2000/svg">
<path d="M255.524 52.517H257.436L270.207 21.3469L282.978 52.517H284.89L300.338 2H292.079L282.443 33.0933L270.284 2L258.124 33.0165L248.565 2H240L255.524 52.517Z" fill="#F4EEEB"/>
<path d="M305.895 51.7493H335.72V44.3022H314.383V30.0223H334.496V22.8824H314.383V9.60058H335.72V2H305.895V51.7493Z" fill="#F4EEEB"/>
<path d="M264.626 102.057H275.791V112.037C273.267 113.419 270.514 114.571 265.391 114.571C256.443 114.571 248.719 108.122 248.719 96.529C248.719 85.3201 255.373 78.4105 265.314 78.4105C271.814 78.4105 276.479 81.6349 278.621 82.9401L282.597 76.6447C279.385 74.4182 273.726 70.6563 264.626 70.6563C251.014 70.6563 240.001 80.3298 240.001 96.529C240.001 112.037 250.249 122.325 265.314 122.325C274.185 122.325 280.074 118.717 283.668 116.183V94.84H264.626V102.057Z" fill="#F4EEEB"/>
<path d="M314.324 114.571C305.989 114.571 299.03 108.122 299.03 96.4522C299.03 84.9362 305.989 78.4105 314.324 78.4105C322.66 78.4105 329.619 84.9362 329.619 96.4522C329.619 108.122 322.66 114.571 314.324 114.571ZM314.324 122.402C329.39 122.402 338.414 110.425 338.414 96.4522C338.414 82.3259 328.931 70.6563 314.324 70.6563C299.718 70.6563 290.235 82.3259 290.235 96.4522C290.235 110.425 299.641 122.402 314.324 122.402Z" fill="#F4EEEB"/>
<path d="M340.216 79.255H354.44V121.404H362.852V79.255H377V71.6544H340.216V79.255Z" fill="#F4EEEB"/>
<path d="M256.143 191.002H264.632V169.429L280.539 141.253H271.132L260.502 161.06L249.949 141.253H240.007L256.143 169.812V191.002Z" fill="#F4EEEB"/>
<path d="M305.792 184.169C297.457 184.169 290.497 177.72 290.497 166.051C290.497 154.535 297.457 148.009 305.792 148.009C314.128 148.009 321.087 154.535 321.087 166.051C321.087 177.72 314.128 184.169 305.792 184.169ZM305.792 192C320.858 192 329.882 180.023 329.882 166.051C329.882 151.924 320.399 140.255 305.792 140.255C291.186 140.255 281.703 151.924 281.703 166.051C281.703 180.023 291.109 192 305.792 192Z" fill="#F4EEEB"/>
<path d="M336.856 172.807C336.856 183.094 343.738 192 356.356 192C369.051 192 375.781 183.094 375.781 172.807V141.253H367.292V172.269C367.292 179.563 362.704 184.169 356.356 184.169C349.933 184.169 345.344 179.563 345.344 172.269V141.253H336.856V172.807Z" fill="#F4EEEB"/>
<path d="M71 60C71 26.8629 98.0868 -7.24234e-07 131.5 0C164.913 7.24234e-07 192 26.8629 192 60V132C192 165.137 164.913 192 131.5 192C98.0868 192 71 165.137 71 132L71 60Z" fill="#A197B4"/>
<path d="M132 71C165.137 71 192 98.0868 192 131.5C192 164.913 165.137 192 132 192H60C26.8629 192 -7.24234e-07 164.913 0 131.5C7.24234e-07 98.0868 26.8629 71 60 71L132 71Z" fill="#A8D4CC" fill-opacity="0.57"/>
</svg>
