<svg width="324" height="502" viewBox="0 0 324 502" fill="none" xmlns="http://www.w3.org/2000/svg">
<path d="M290.397 113.242C293.596 114.358 296.945 113.986 299.846 115.921C296.498 118.748 293.001 115.921 289.355 116.516C291.215 118.078 292.927 119.418 294.564 120.906C295.159 121.426 295.903 122.245 295.382 122.989C294.787 123.882 293.596 123.51 292.927 122.989C290.843 121.501 288.76 119.864 286.156 117.855C287.049 121.724 290.62 123.435 290.62 127.23C288.76 126.932 287.719 125.742 286.677 124.551C285.71 123.435 284.817 122.17 283.626 120.608C283.106 124.105 283.478 127.23 281.915 130.652C280.65 125.965 280.278 121.798 281.245 117.632C281.617 115.921 281.469 114.879 279.981 113.763C271.052 106.769 264.281 97.9893 258.999 88.0193C258.701 87.4985 258.552 86.9032 258.255 86.3824C257.66 85.2664 257.511 84.2247 258.776 83.4807C260.189 82.7366 260.859 83.8527 261.305 84.8199C263.091 88.8377 265.621 92.3347 268.076 95.9805C272.019 101.933 277.079 106.695 282.436 111.159C283.775 112.275 284.742 112.2 286.23 111.531C290.62 109.522 295.233 108.927 300.962 109.596C297.242 111.828 293.745 111.828 290.397 113.242Z" fill="#F48473"/>
<path d="M321.276 15.3271C319.416 15.5503 317.481 15.5503 315.249 15.6247C315.993 17.0384 317.258 17.1128 318.225 17.708C319.341 18.3776 320.532 18.9729 321.648 19.6425C322.466 20.1633 323.359 20.9818 322.987 21.8002C322.541 22.7674 321.276 22.1722 320.532 21.8746C318.448 21.0562 316.365 20.0145 313.538 18.6753C316.216 22.0234 318.746 24.4043 320.755 27.9757C315.621 25.5204 312.05 22.2466 309.669 17.9312C308.776 16.2943 307.809 15.8479 306.097 15.9967C295.458 16.8896 285.19 19.1217 275.741 24.3299C274.327 25.0739 272.393 27.3061 271.053 24.8507C269.714 22.3954 272.616 21.949 274.03 21.2794C284.074 16.3687 294.565 12.9462 305.8 12.4998C307.66 12.4254 308.329 11.7557 308.999 10.1189C310.562 6.10108 313.314 2.97614 316.96 0C316.588 3.64577 314.133 5.95227 312.868 9.15162C315.993 8.18437 318.746 6.84511 322.094 7.66355C320.085 11.0117 315.919 10.1189 313.24 12.6486C314.951 13.1694 316.514 12.723 318.076 12.723C319.118 12.723 320.085 12.4254 321.127 12.4998C322.094 12.4998 323.582 12.6486 323.657 13.6902C323.88 15.1039 322.317 15.1783 321.276 15.3271Z" fill="#F48473"/>
<path d="M215.693 70.7576C214.651 81.6205 215.768 92.2602 219.19 102.602C219.339 103.049 219.488 103.57 219.636 104.016C220.009 105.132 219.86 106.025 218.595 106.471C217.33 106.918 216.735 106.025 216.363 105.058C214.651 100.37 213.387 95.5339 212.717 90.6233C211.675 83.6294 211.601 76.6355 212.271 69.6416C212.345 68.5999 212.568 67.7071 211.378 67.1118C207.062 65.0285 204.458 61.234 201.631 56.993C205.202 58.0346 207.211 60.7131 210.038 62.5732C209.815 59.2995 208.774 56.3233 210.113 52.9752C213.015 55.8025 211.675 59.8203 213.61 62.6476C214.875 59.9691 214.205 57.1418 214.949 54.4633C215.172 53.5704 215.47 52.3056 216.437 52.38C217.628 52.4544 217.628 53.868 217.553 54.8353C217.404 56.993 217.107 59.2251 216.884 61.6804C219.785 59.3739 220.455 55.0585 224.845 54.3145C224.175 57.8114 221.72 60.0435 219.636 63.3173C223.282 61.606 225.812 59.1507 229.532 58.2578C226.407 62.4244 222.985 65.6238 218.372 67.1118C216.363 67.9303 215.842 68.9719 215.693 70.7576Z" fill="#F48473"/>
<path d="M199.029 143.896C201.187 145.012 203.27 145.31 205.205 145.905C206.172 146.203 207.586 146.798 207.288 147.765C206.916 149.03 205.503 148.732 204.386 148.435C201.857 147.765 199.327 147.021 196.351 146.203C198.583 149.328 202.452 149.923 204.238 153.345C200.592 153.643 198.36 151.411 195.309 149.774C196.351 153.122 197.467 156.024 197.69 159.893C194.863 156.322 192.631 153.048 192.408 149.104C192.259 146.203 190.919 145.161 188.39 144.417C177.824 141.292 168.45 135.935 160.34 128.495C159.372 127.602 157.14 126.709 158.628 124.998C160.116 123.212 161.307 125.147 162.423 126.039C170.979 133.108 180.28 138.762 190.994 141.738C192.333 142.11 193.077 142.036 194.119 140.92C197.541 137.2 201.782 134.745 207.139 134.001C204.461 136.084 201.782 138.167 198.657 140.622C202.303 140.622 205.279 139.134 208.999 139.506C206.47 143.152 202.154 141.887 199.029 143.896Z" fill="#F48473"/>
<path d="M192.035 198.583C192.035 196.797 189.58 196.723 187.794 196.723C185.264 196.723 182.66 196.723 179.684 196.723C181.023 195.681 181.991 194.863 183.032 194.044C184.967 192.482 187.348 191.291 188.613 188.91C189.133 187.943 190.026 186.753 189.133 185.86C188.389 185.116 187.125 186.083 186.381 186.529C183.628 188.315 181.023 190.324 177.824 192.63C180.279 187.348 183.404 183.181 184.669 177.899C183.256 178.345 182.512 179.163 181.768 179.982C177.601 184.297 174.55 189.282 172.914 195.086C172.541 196.425 172.169 197.392 170.384 197.467C156.024 198.062 141.738 199.178 127.453 200.443C122.989 200.815 118.525 201.261 113.614 201.633C114.135 201.187 114.284 201.038 114.432 200.964C127.007 196.351 139.581 191.738 152.155 187.05C153.569 186.529 154.387 187.125 155.354 187.943C158.926 191.068 163.018 193.077 168.3 193.672C165.696 190.845 162.571 189.729 159.818 187.645C163.167 187.199 166.143 188.91 169.342 187.645C166.961 184.148 162.943 185.711 159.67 184.074C161.753 183.181 163.539 182.586 165.25 181.693C166.143 181.247 167.78 180.726 167.184 179.461C166.664 178.419 165.176 178.94 164.134 179.312C161.753 180.131 159.446 181.023 156.619 182.065C158.628 178.717 162.72 178.122 163.911 174.327C160.339 174.476 158.33 176.782 155.652 178.494C155.726 175.294 157.438 172.393 156.619 168.821C154.164 172.839 152.378 176.634 152.304 180.875C152.304 182.958 151.411 183.628 149.7 184.297C135.786 189.505 121.873 194.565 107.811 199.327C107.215 199.55 106.62 200.071 105.876 199.401C113.093 194.044 120.31 188.761 127.453 183.33C128.569 182.512 129.388 182.735 130.504 183.256C133.331 184.595 136.307 185.19 140.102 184.892C137.87 183.107 135.563 183.256 133.405 181.916C135.563 181.172 137.869 181.916 139.506 180.056C137.2 178.94 135.117 179.759 132.512 179.61C133.852 178.419 134.893 177.675 135.786 176.782C136.233 176.336 137.2 175.815 136.53 175.071C136.009 174.402 135.191 174.922 134.596 175.294C133.256 176.262 131.917 177.229 130.057 178.568C130.876 175.964 133.182 174.699 133.033 172.244C130.727 172.616 130.132 174.922 128.495 175.964C128.197 173.881 127.899 172.021 127.453 169.268C126.039 172.914 126.114 175.815 126.709 178.643C126.932 179.907 127.007 180.651 125.816 181.47C117.781 187.348 109.745 193.226 101.709 199.104C99.9982 200.368 99.1797 199.922 99.0309 197.764C98.6589 191.663 98.0637 185.636 97.7661 179.535C97.0964 163.985 95.6828 148.509 94.2691 133.033C94.1203 131.173 94.5667 130.132 96.2036 129.164C101.709 125.891 105.578 121.129 108.48 114.73C104.016 117.483 100.965 120.831 97.2452 124.105C98.2869 119.641 101.337 116.367 101.04 111.754C95.906 113.688 96.278 119.269 93.1531 122.766C92.8554 120.459 92.7066 118.525 92.409 116.665C92.1858 114.804 92.1114 112.796 89.9537 111.307C87.4984 115.846 90.4745 120.608 89.3585 125.37C86.0847 121.947 86.68 116.739 82.6622 113.837C81.3973 118.45 83.8526 121.947 85.2663 125.965C81.3229 124.105 78.1236 121.426 73.6594 120.98C77.1563 125.593 82.2902 129.164 87.796 130.578C89.5073 131.024 89.8793 131.694 89.9537 133.257C91.0698 147.988 92.409 162.646 93.3763 177.378C93.7483 182.586 93.4507 187.794 93.4507 192.407C89.9537 181.247 86.2335 169.491 82.5134 157.661C82.1413 156.47 82.7366 155.875 83.4806 155.131C86.0847 152.378 87.796 149.104 88.6144 144.938C86.2335 146.575 85.2663 149.104 83.3318 151.039C83.0342 148.286 85.0431 145.831 83.555 143.227C80.7277 145.087 81.6949 148.435 80.2069 151.113C79.5372 149.253 79.0164 147.691 78.3468 146.203C77.9748 145.459 77.6771 144.119 76.5611 144.566C75.7427 144.938 75.8915 146.128 76.1891 147.021C76.8587 149.03 77.4539 151.039 78.198 153.42C75.5194 151.709 75.2218 148.286 72.2457 147.319C71.5017 150.146 74.0314 151.709 74.6266 154.089C72.0225 154.164 69.7904 152.601 66.7398 153.048C70.0136 155.354 72.9897 156.917 76.4123 157.14C78.7932 157.289 79.5372 158.479 80.2813 160.488C83.4806 169.268 85.8615 178.345 88.6144 187.273C89.5817 190.324 90.4745 193.374 91.5162 196.871C90.8465 196.425 90.6233 196.351 90.5489 196.202C79.0164 178.866 67.1863 161.679 54.7609 144.938C53.7937 143.673 54.0913 143.003 54.9841 141.887C59.4483 136.158 62.1268 129.76 62.1268 122.096C58.4067 126.263 56.8442 131.248 54.0169 136.158C53.2728 131.471 54.9097 127.081 52.2312 123.212C47.6926 127.155 50.3711 132.512 49.0318 137.497C47.1717 135.042 45.6837 132.884 44.0468 130.876C42.9308 129.536 41.2939 127.676 39.8802 128.792C38.2433 130.057 39.5826 132.14 40.6987 133.629C42.4843 136.158 44.3444 138.614 46.5765 141.59C41.0707 140.325 38.1689 135.042 32.5887 135.34C33.7791 139.804 37.8713 141.366 41.0707 144.194C35.788 145.235 30.5798 144.566 25.7436 146.5C32.7375 147.691 39.657 148.956 46.7253 147.096C48.883 146.5 52.5288 148.881 51.8592 150.741C50.5199 154.461 52.38 157.661 52.3056 161.604C51.3383 160.488 50.3711 159.298 49.3295 158.256C48.139 157.066 46.3533 155.131 45.2373 156.247C44.1956 157.289 46.2789 159.149 47.3206 160.414C48.6598 161.976 50.4455 163.092 51.636 165.324C47.9158 164.283 45.4605 161.232 41.3683 161.381C43.154 164.655 46.2045 165.771 48.883 167.78C45.5349 168.598 42.2611 168.747 39.0618 170.607C43.9724 171.128 48.3622 171.5 52.6776 169.863C55.1329 168.896 56.621 169.714 57.1418 172.318C57.4394 173.806 57.4394 175.443 57.5882 177.452C55.6537 175.741 55.4305 173.36 53.4216 172.393C52.38 175.071 54.8353 176.708 55.2817 179.238C53.7193 178.419 52.38 177.675 51.0407 177.006C50.5943 176.782 49.9991 176.559 49.6271 177.08C49.1806 177.75 49.7015 178.271 50.1479 178.568C51.7104 179.684 53.2728 180.726 55.2073 181.991C52.5288 182.14 50.5199 180.354 48.139 181.395C49.255 183.553 51.8592 183.107 53.2728 184.372C49.9247 187.571 46.5021 186.678 42.782 185.19C37.9457 183.256 33.0351 181.619 28.1245 180.131C25.8924 179.461 24.9251 178.568 24.9995 175.964C25.1483 170.235 23.065 165.176 19.0473 160.488C18.6008 165.101 20.6097 168.97 20.6841 173.434C17.4104 170.533 15.7735 166.515 11.5325 164.878C10.5653 170.384 15.6247 172.467 17.4104 176.485C14.7319 176.262 12.4998 174.848 10.1189 174.327C8.40758 173.955 5.80347 172.988 5.20824 174.625C4.68741 176.336 7.29153 177.155 9.00281 177.824C11.6813 178.791 14.5831 179.312 17.4104 181.023C12.4254 182.288 7.58914 179.833 2.90173 182.288C6.6219 185.413 11.0117 184.372 15.2527 185.339C11.1605 187.943 7.21713 189.877 3.72017 193.672C10.6397 191.812 16.5176 189.431 21.3538 184.967C22.7674 183.702 23.8091 183.479 25.5948 184.148C37.4249 188.464 49.3295 192.63 61.1596 196.871C65.7726 198.508 70.3856 200.294 74.9986 202.005C62.7221 201.708 50.6687 201.038 38.6154 200.815C35.416 200.74 33.4815 199.996 32.1423 196.871C30.5054 193.002 27.3804 190.175 23.2139 187.645C24.7019 191.44 26.934 193.97 28.9429 197.169C25.5204 195.979 23.2883 193.151 19.5681 193.226C20.6097 197.243 24.7763 197.69 27.1572 200.22C24.3299 200.592 21.8002 199.773 19.3449 200.517C18.7497 200.666 18.0056 200.666 17.8568 201.41C17.708 202.303 18.6008 202.526 19.2705 202.749C20.0145 202.972 20.8329 203.121 21.6514 203.121C23.8091 203.196 25.9668 203.121 28.1245 203.121C25.446 205.8 21.205 204.609 18.6752 207.958C19.5681 208.181 20.1633 208.33 20.7585 208.404C23.2139 208.776 25.5204 207.511 28.1989 207.437C26.6364 210.487 23.8091 212.422 23.0651 215.993C27.1572 213.315 30.6542 210.413 32.6631 206.395C33.7791 204.237 34.8952 204.089 36.9041 204.237C47.4694 204.833 58.0346 205.279 68.5999 205.8C73.2129 206.023 77.7516 206.246 82.3646 206.544C79.9837 207.586 77.5283 207.958 75.1474 208.478C58.0346 212.05 40.9219 215.547 23.8091 219.192C22.0978 219.564 21.1306 219.267 19.8657 218.076C15.0295 213.315 9.15162 210.562 1.93449 208.925C5.65466 212.794 9.89565 214.803 14.0622 217.853C9.15161 217.407 4.98503 215.323 0 216.291C3.57136 220.606 8.92841 219.416 13.467 221.722C10.4165 222.392 7.96116 222.838 5.58026 223.508C4.09219 223.954 1.63687 224.177 2.08329 226.038C2.45531 227.377 4.83622 227.154 6.47309 226.707C7.58914 226.41 8.63079 226.112 9.74684 225.889C11.9789 225.517 14.0622 224.624 16.592 224.698C13.5414 228.121 8.33318 228.046 5.95227 232.362C10.7885 233.031 14.0622 230.279 18.08 228.567C17.336 230.725 16.6664 232.511 16.0711 234.296C15.4759 236.082 14.5087 237.868 14.8807 240.472C18.6753 235.487 22.3954 231.171 22.8418 225.145C22.9906 223.657 23.8091 223.508 24.9995 223.21C40.1778 219.49 55.5793 216.737 70.9064 213.538C74.329 212.794 77.826 212.124 81.2485 211.454C70.9064 217.109 60.4156 222.243 50.2223 227.898C48.6598 228.79 47.5438 228.642 46.2045 227.526C42.6331 224.475 38.2433 223.433 33.1839 222.838C36.2345 225.368 39.5826 226.41 42.782 228.642C39.3594 228.642 36.3833 227.526 33.3327 229.162C36.2345 231.692 39.8058 230.427 43.0796 231.692C41.2939 232.734 39.7314 233.478 38.2433 234.52C37.4993 235.04 36.16 235.71 36.9041 236.826C37.4993 237.719 38.6898 237.421 39.657 236.9C41.6659 235.859 43.6748 234.817 46.2045 233.478C45.0141 236.38 42.5587 237.57 41.3683 239.579C40.9963 240.174 40.4754 240.918 41.0707 241.513C41.5915 242.109 42.4843 241.662 43.0052 241.216C44.7164 239.877 46.2789 238.537 47.9158 237.124C48.9574 242.109 47.4694 245.68 43.2284 248.284C41.1451 249.549 39.285 251.26 37.7225 253.046C36.0112 254.98 34.672 255.204 32.3655 253.79C26.4876 250.144 19.8657 249.177 13.0206 249.921C17.336 252.6 22.3954 253.492 27.3805 255.873C23.5115 256.543 20.0889 257.138 16.7408 257.808C15.9967 257.957 14.9551 258.254 14.9551 259.147C14.9551 260.04 15.9967 260.338 16.7408 260.561C19.0473 261.305 21.3538 261.007 23.6603 260.784C25.446 260.561 27.306 260.114 29.2405 260.635C27.0084 262.57 24.9251 264.206 23.0651 266.067C21.949 267.183 20.3865 268.894 21.5026 270.159C22.7674 271.572 24.7019 270.308 26.0412 269.043C26.4132 268.671 26.7108 268.299 27.1572 268.001C29.4637 266.513 31.1006 264.058 33.6303 262.718C34.2256 263.537 33.7047 264.132 33.5559 264.653C32.7375 267.034 31.0262 268.82 29.8358 270.903C28.8685 272.54 27.3804 275.293 28.7197 276.111C30.431 277.153 32.1423 274.772 33.2583 273.06C34.4488 271.126 35.7136 269.192 37.1273 266.885C38.2433 272.168 38.4666 277.227 40.7731 282.733C41.7403 275.069 42.0379 268.299 39.657 261.826C38.8386 259.593 39.4338 258.626 40.9963 257.361C52.1568 248.135 63.1685 238.835 74.329 229.683C77.3051 227.228 80.4301 224.996 83.4806 222.689C75.9659 234.594 68.2279 246.126 60.5644 257.808C59.6715 259.221 58.5555 258.775 57.365 258.552C51.9336 257.51 46.7997 258.403 41.8147 260.338C41.8147 260.635 41.8147 260.858 41.8147 261.156H53.2728C51.4127 262.867 49.4039 263.76 47.4694 264.727C46.4277 265.248 44.7164 266.067 45.1629 267.108C45.6837 268.447 47.4694 267.927 48.7342 267.555C49.7759 267.257 50.7431 266.587 51.7848 266.215C53.0496 265.769 54.1657 264.727 55.9514 264.802C54.6865 266.885 53.5704 268.671 52.5288 270.456C51.9336 271.498 51.1895 273.135 52.2312 273.805C53.496 274.549 54.6121 273.209 55.3561 272.093C55.7281 271.498 56.1002 270.903 56.5466 270.308C57.5882 268.671 58.7043 267.034 60.118 264.876C60.5644 269.415 57.2162 272.837 59.0019 276.929C62.2012 274.772 62.1268 271.126 63.5405 267.703C65.3262 271.275 66.5166 274.697 69.2696 277.971C68.3767 272.391 67.7071 267.406 64.5822 263.314C63.3917 261.677 63.3917 260.635 64.4333 259.147C70.46 250.219 76.4123 241.29 82.5134 232.362C82.6622 232.139 82.8854 231.841 83.0342 231.618C80.8765 239.133 78.8676 246.722 77.1563 254.311C76.8587 254.46 76.4867 254.534 76.1147 254.608C72.6177 255.65 69.6416 257.585 66.591 260.858C69.716 259.817 72.0969 258.998 74.9242 258.031C73.585 260.561 71.1296 261.751 70.6088 264.281C72.6921 264.951 73.585 262.867 75.2962 262.272C74.9242 263.686 74.4778 266.885 74.1058 268.15C74.1802 268.15 74.1802 268.075 74.2546 268.075C73.2129 273.581 72.2457 279.087 71.3529 284.593C67.6327 308.997 66.219 333.774 67.0375 358.476C67.4095 370.827 68.5999 383.029 68.5255 395.008C68.4511 401.034 68.2279 406.912 67.3351 412.79L67.0375 414.948L66.8886 416.064C66.8142 416.436 66.7398 416.808 66.6654 417.18L65.7726 421.495C65.0286 424.397 64.3589 427.224 63.4661 430.126C60.118 441.51 55.1329 452.447 49.4783 463.087C43.8236 473.727 37.4249 484.069 30.9518 494.411C30.9518 494.411 30.8774 494.485 30.8774 494.559C29.5381 496.866 30.2822 499.916 32.5887 501.256C34.8952 502.595 37.9457 501.851 39.285 499.544C45.4605 488.979 51.636 478.265 57.2906 467.179C60.1179 461.673 62.7221 455.944 65.103 450.215C67.4839 444.412 69.5672 438.534 71.3529 432.433C72.2457 429.382 72.9153 426.332 73.6594 423.281L74.5522 418.594C74.6266 418.222 74.701 417.85 74.7754 417.403L74.9242 416.213L75.2218 413.832C76.1147 407.582 76.3379 401.258 76.3379 395.008C76.2635 382.508 74.9986 370.306 74.5522 358.178C73.585 334.443 74.7754 310.634 78.0492 287.123C80.3557 286.081 83.183 285.039 85.6383 283.923C84.9687 285.709 84.299 287.197 83.8526 288.685C83.1086 290.843 81.8437 294.117 83.927 294.935C85.4895 295.605 86.7544 292.182 87.6472 290.099C88.4656 288.016 88.9865 285.783 90.9954 283.775C91.3674 287.123 90.921 289.95 90.6977 292.703C90.5489 294.637 90.8465 297.093 92.7066 297.242C94.3435 297.39 94.7899 294.786 94.8643 293.075C94.9387 290.769 94.8643 288.462 94.8643 285.411C98.8077 289.28 99.4773 295.084 105.355 296.126C104.834 291.364 101.486 288.388 99.6261 283.998C104.388 287.048 108.183 290.471 113.688 292.48C109.299 286.155 104.09 282.063 97.7661 279.459C96.5756 278.938 95.8316 278.641 95.9804 276.929C96.4268 268.82 96.7244 260.635 96.8732 252.525C97.022 244.043 97.6173 235.561 98.2125 227.005C99.4029 227.451 99.2541 228.418 99.4773 229.088C102.23 239.505 104.983 249.921 107.811 260.263C108.183 261.751 107.438 262.272 106.546 263.016C102.751 266.29 100.519 270.456 99.1053 275.813C102.379 273.209 104.016 270.01 106.62 267.034C106.322 270.68 104.314 273.656 105.355 277.301C108.778 274.921 108.034 270.977 109.671 267.778C111.233 270.754 110.787 274.325 113.688 276.483C115.325 272.465 112.349 269.117 112.498 265.099C114.953 267.778 115.921 271.2 118.599 273.358C119.194 273.879 118.301 274.623 118.004 275.218C116.813 278.269 115.548 281.394 114.358 284.444C117.855 282.063 119.641 278.343 122.319 274.772C122.989 279.087 122.617 283.179 125.667 286.453C128.197 282.287 124.998 278.046 126.411 273.879C129.09 277.748 129.016 282.807 133.405 285.709C134.893 281.096 131.322 277.971 130.727 273.879C134.596 275.888 137.051 280.352 142.408 280.129C140.399 275.888 136.233 274.4 133.48 271.052C138.093 272.168 142.11 273.73 147.096 273.953C141.962 269.787 136.605 267.555 130.578 267.331C128.271 267.257 127.453 266.364 126.635 264.43C121.947 252.748 116.962 241.216 111.605 229.758C110.191 226.782 109.075 223.731 107.811 220.755C117.185 229.311 125.667 238.537 135.042 246.722C136.307 247.838 135.935 248.731 135.34 249.921C133.405 254.311 132.215 258.849 133.48 264.355C135.34 260.71 135.637 257.287 136.828 253.939C138.39 256.394 137.349 259.742 140.027 261.751C141.962 258.403 140.176 255.278 140.25 251.707C141.887 253.12 143.227 254.385 144.64 255.501C145.31 256.022 146.351 256.766 147.096 256.022C148.063 255.129 147.17 254.088 146.5 253.344C145.012 251.781 143.301 250.442 142.036 248.433C144.789 248.21 146.649 249.995 148.807 250.665C149.551 250.888 150.592 251.111 151.039 250.367C151.56 249.475 150.592 248.879 150.072 248.359C148.584 246.87 146.351 246.647 144.119 245.308C147.988 244.192 151.485 243.671 154.908 241.141C149.402 241.29 144.789 241.885 140.622 244.192C139.209 244.936 138.316 244.862 137.2 243.746C132.438 238.984 127.527 234.445 122.914 229.609C119.045 225.591 115.4 221.276 111.233 216.588C112.275 216.737 112.572 216.663 112.796 216.812C127.304 224.549 141.813 232.436 155.875 240.918C157.512 241.885 157.661 242.704 157.289 244.266C155.875 250.591 156.917 256.766 158.926 263.462C160.414 258.329 159.595 253.716 160.116 248.433C161.009 249.475 161.307 249.847 161.604 250.219C163.241 252.228 164.655 254.608 167.11 255.725C167.78 256.022 168.673 256.617 169.342 255.873C169.789 255.352 169.491 254.534 169.193 253.864C168.375 251.856 166.664 250.442 165.324 248.805C164.208 247.466 162.795 246.275 162.571 243.894C165.548 245.68 168.152 247.168 170.681 248.805C172.169 249.772 174.402 250.293 175.146 249.177C176.187 247.615 174.104 246.424 172.839 245.531C170.83 244.118 168.747 242.853 166.44 241.365C171.277 239.728 176.708 242.183 180.354 237.496C176.262 235.933 172.169 237.272 167.482 236.752C172.244 233.701 177.08 232.139 181.023 228.344C173.509 229.311 167.11 231.618 161.827 236.454C160.563 237.57 159.744 237.496 158.405 236.677C148.212 230.13 137.572 224.401 127.007 218.448C121.798 215.547 116.59 212.719 110.935 209.594C124.402 212.571 137.349 215.472 150.369 218.225C152.006 218.597 152.676 219.192 153.048 220.904C154.089 225.517 156.247 229.535 160.191 233.031C159.446 229.386 157.81 226.41 156.694 223.136C159.67 224.177 161.009 227.526 164.357 228.121C164.134 223.954 160.042 222.913 158.33 219.639C160.86 220.085 163.018 220.457 165.176 220.829C166.068 220.978 167.11 220.904 167.333 220.16C167.631 219.044 166.515 218.746 165.696 218.448C164.952 218.151 164.059 218.151 163.315 217.928C161.604 217.332 159.595 217.63 158.033 216.216C161.009 214.579 164.655 215.919 167.556 213.687C164.655 211.826 161.679 213.017 158.628 212.571C159.744 211.306 160.786 210.264 161.753 209.074C162.72 207.958 163.613 206.767 164.729 205.353C161.083 206.321 156.768 209.52 154.536 213.24C153.494 215.026 152.453 215.175 150.592 214.728C143.375 213.091 136.084 211.678 128.867 210.041C125.147 209.222 121.426 208.181 117.706 207.288C122.394 206.395 127.007 206.097 131.545 205.651C144.417 204.386 157.289 203.419 170.161 202.675C172.021 202.6 172.914 203.121 173.658 204.981C176.336 211.306 180.726 216.365 186.604 220.829C184.967 215.472 181.619 211.678 178.94 207.065C183.33 208.255 187.199 210.115 191.514 208.181C188.315 203.493 182.363 205.205 178.643 201.782C181.916 200.964 184.967 201.038 188.017 200.964C189.654 200.964 192.035 200.443 192.035 198.583ZM59.1507 173.583C65.6238 180.354 71.4273 186.529 77.3051 192.63L76.9331 193.002C71.7249 189.729 66.5166 186.455 61.3084 183.181C60.5644 182.66 59.7459 182.288 59.8947 181.098C60.0435 178.866 59.7459 176.708 59.1507 173.583ZM59.2251 160.86C65.4006 169.119 70.9808 177.229 75.8915 185.86C71.8737 181.619 67.8559 177.452 63.8381 173.211C63.0197 172.318 62.2012 171.425 61.3084 170.607C57.4394 166.664 57.4394 166.738 59.2251 160.86ZM81.0253 199.476C71.0552 195.755 61.0852 192.035 50.5199 188.092C53.3472 187.125 55.7281 186.604 57.5882 185.041C58.4811 184.297 59.0763 184.892 59.7459 185.264C66.9631 189.803 74.1058 194.342 81.3229 198.88L81.0253 199.476ZM50.2967 242.555C50.7431 239.207 51.0407 236.38 50.3711 233.552C50.1479 232.511 50.5199 232.064 51.3383 231.618C61.606 226.038 72.0225 220.829 82.7366 216.291C72.0969 224.922 61.3828 233.627 50.2967 242.555ZM92.037 238.686C91.665 250.963 91.1442 263.239 90.7721 275.59C90.6977 277.822 90.1769 278.938 87.7216 279.459C84.8199 280.129 81.1741 281.468 78.57 283.179C79.2396 278.492 80.0581 273.879 80.9509 269.192C82.5878 266.885 82.7366 262.793 83.4062 260.263C85.1919 262.123 86.1591 264.355 88.4656 265.62C87.6472 261.974 86.0103 258.998 83.6294 256.394C84.6711 251.93 85.7127 247.466 86.9032 243.002C88.6145 238.612 90.3257 234.222 92.037 229.832C92.037 232.808 92.1114 235.784 92.037 238.686ZM122.319 269.712C121.352 270.531 120.385 271.498 119.269 272.54C118.525 269.638 117.111 267.183 115.325 264.43C117.781 265.099 119.789 265.546 121.724 266.29C123.361 267.034 124.105 268.224 122.319 269.712ZM121.501 263.909C117.855 262.346 114.879 260.784 111.456 260.71C111.233 260.71 110.861 259.965 110.787 259.519C108.331 248.954 104.834 238.686 103.346 227.898C103.272 227.302 103.346 226.707 103.346 225.517C110.861 237.719 115.474 250.739 121.501 263.909Z" fill="#F48473"/>
</svg>
