<svg width="12" height="16" viewBox="0 0 12 16" fill="none" xmlns="http://www.w3.org/2000/svg">
<g opacity="0.79">
<mask id="path-1-inside-1" fill="white">
<path fill-rule="evenodd" clip-rule="evenodd" d="M6 6C7.65685 6 9 4.65685 9 3C9 1.34315 7.65685 0 6 0C4.34315 0 3 1.34315 3 3C3 4.65685 4.34315 6 6 6ZM6 16C9.31371 16 12 14.2979 12 13.4468C12 10.4386 9.31371 8 6 8C2.68629 8 0 10.4386 0 13.4468C0 14.6383 2.68629 16 6 16Z"/>
</mask>
<path fill-rule="evenodd" clip-rule="evenodd" d="M6 6C7.65685 6 9 4.65685 9 3C9 1.34315 7.65685 0 6 0C4.34315 0 3 1.34315 3 3C3 4.65685 4.34315 6 6 6ZM6 16C9.31371 16 12 14.2979 12 13.4468C12 10.4386 9.31371 8 6 8C2.68629 8 0 10.4386 0 13.4468C0 14.6383 2.68629 16 6 16Z" fill="#F4EEEB"/>
<path d="M7 3C7 3.55228 6.55228 4 6 4V8C8.76142 8 11 5.76142 11 3H7ZM6 2C6.55228 2 7 2.44772 7 3H11C11 0.238576 8.76142 -2 6 -2V2ZM5 3C5 2.44772 5.44772 2 6 2V-2C3.23858 -2 1 0.238576 1 3H5ZM6 4C5.44772 4 5 3.55228 5 3H1C1 5.76142 3.23858 8 6 8V4ZM10 13.4468C10 13.0432 10.1499 12.7925 10.1817 12.7415C10.2241 12.6737 10.2382 12.6742 10.1746 12.7328C10.0487 12.8485 9.78342 13.0404 9.36277 13.2465C8.52945 13.6547 7.32884 14 6 14V18C7.98486 18 9.78426 17.4942 11.1225 16.8386C11.7877 16.5128 12.401 16.1196 12.8824 15.6768C13.1224 15.4561 13.3723 15.184 13.5745 14.8602C13.7662 14.5532 14 14.0632 14 13.4468H10ZM6 10C8.39558 10 10 11.7208 10 13.4468H14C14 9.1564 10.2318 6 6 6V10ZM2 13.4468C2 11.7208 3.60442 10 6 10V6C1.76816 6 -2 9.1564 -2 13.4468H2ZM6 14C4.5966 14 3.38068 13.7081 2.57915 13.3468C2.17293 13.1638 1.95221 12.9986 1.86574 12.9145C1.75202 12.8039 2 12.9803 2 13.4468H-2C-2 14.509 -1.41623 15.3025 -0.92272 15.7823C-0.401957 16.2887 0.256003 16.6873 0.935571 16.9936C2.30561 17.6111 4.08969 18 6 18V14Z" fill="#F4EEEB" mask="url(#path-1-inside-1)"/>
</g>
</svg>
