<svg width="144" height="144" viewBox="0 0 144 144" fill="none" xmlns="http://www.w3.org/2000/svg">
<path d="M52.3633 45C52.3633 20.1472 72.8768 -5.43176e-07 98.1815 0C123.486 5.43176e-07 144 20.1472 144 45V99C144 123.853 123.486 144 98.1815 144C72.8768 144 52.3633 123.853 52.3633 99L52.3633 45Z" fill="#A197B4"/>
<path d="M99 52.3638C123.853 52.3638 144 72.8773 144 98.182C144 123.487 123.853 144 99 144H45C20.1472 144 -5.43176e-07 123.487 0 98.1819C5.43176e-07 72.8773 20.1472 52.3638 45 52.3638L99 52.3638Z" fill="#A8D4CC" fill-opacity="0.57"/>
</svg>
