<svg width="16" height="19" viewBox="0 0 16 19" fill="none" xmlns="http://www.w3.org/2000/svg">
<path d="M15.63 1.56643C15.5138 1.47712 15.3781 1.41369 15.2327 1.3808C15.0873 1.34791 14.9361 1.34639 14.79 1.37637C13.7214 1.58918 12.6183 1.59189 11.5486 1.38434C10.4789 1.17678 9.46524 0.763345 8.57 0.169491C8.4026 0.0591351 8.20373 0 8 0C7.79627 0 7.5974 0.0591351 7.43 0.169491C6.53476 0.763345 5.52108 1.17678 4.45137 1.38434C3.38166 1.59189 2.27857 1.58918 1.21 1.37637C1.06394 1.34639 0.91267 1.34791 0.767306 1.3808C0.621941 1.41369 0.486181 1.47712 0.370005 1.56643C0.253985 1.65587 0.160527 1.76888 0.096498 1.89715C0.0324694 2.02542 -0.00050219 2.16569 5.78148e-06 2.30766V9.38737C-0.000883254 10.7499 0.340779 12.0928 0.99654 13.3045C1.6523 14.5161 2.60318 15.5613 3.77 16.3531L7.42 18.8238C7.58936 18.9384 7.7921 19 8 19C8.2079 19 8.41064 18.9384 8.58 18.8238L12.23 16.3531C13.3968 15.5613 14.3477 14.5161 15.0035 13.3045C15.6592 12.0928 16.0009 10.7499 16 9.38737V2.30766C16.0005 2.16569 15.9675 2.02542 15.9035 1.89715C15.8395 1.76888 15.746 1.65587 15.63 1.56643ZM14 9.38737C14.0008 10.4467 13.7353 11.4909 13.2256 12.4331C12.716 13.3753 11.977 14.1881 11.07 14.8041L8 16.8852L4.93 14.8041C4.02304 14.1881 3.28399 13.3753 2.77435 12.4331C2.26472 11.4909 1.99924 10.4467 2 9.38737V3.4005C4.09643 3.57102 6.19604 3.10878 8 2.07959C9.80396 3.10878 11.9036 3.57102 14 3.4005V9.38737ZM9.54 7.21119L6.85 9.777L5.96 8.92173C5.7717 8.74279 5.5163 8.64225 5.25 8.64225C4.9837 8.64225 4.72831 8.74279 4.54 8.92173C4.3517 9.10067 4.24591 9.34338 4.24591 9.59644C4.24591 9.84951 4.3517 10.0922 4.54 10.2712L6.14 11.7916C6.23296 11.8807 6.34357 11.9514 6.46542 11.9996C6.58728 12.0479 6.71799 12.0727 6.85 12.0727C6.98201 12.0727 7.11272 12.0479 7.23458 11.9996C7.35644 11.9514 7.46704 11.8807 7.56 11.7916L11 8.55111C11.1883 8.37217 11.2941 8.12947 11.2941 7.8764C11.2941 7.62334 11.1883 7.38064 11 7.20169C10.8117 7.02275 10.5563 6.92222 10.29 6.92222C10.0237 6.92222 9.7683 7.02275 9.58 7.20169L9.54 7.21119Z" fill="#292D44"/>
</svg>
