<svg width="92" height="47" viewBox="0 0 92 47" fill="none" xmlns="http://www.w3.org/2000/svg">
<path d="M32.3125 17.0909C40.4242 17.0909 47 23.7863 47 32.0455C47 40.3047 40.4242 47 32.3125 47H14.6875C6.57582 47 -1.77286e-07 40.3047 0 32.0455C1.77286e-07 23.7863 6.57582 17.0909 14.6875 17.0909L32.3125 17.0909Z" fill="#A8D4CC"/>
<path d="M62.1055 13.5418H62.5626L65.6163 6.06499L68.6699 13.5418H69.1271L72.8207 1.42419H70.8459L68.5419 8.88262L65.6346 1.42419L62.7272 8.8642L60.4415 1.42419H58.3936L62.1055 13.5418Z" fill="#F4EEEB"/>
<path d="M74.1494 13.3577H81.2807V11.5713H76.1791V8.14598H80.9881V6.43331H76.1791V3.24736H81.2807V1.42419H74.1494V13.3577Z" fill="#F4EEEB"/>
<path d="M64.2818 25.425H66.9514V27.8191C66.348 28.1506 65.6897 28.4268 64.4646 28.4268C62.3252 28.4268 60.4784 26.8799 60.4784 24.0991C60.4784 21.4104 62.0692 19.753 64.4463 19.753C66.0006 19.753 67.116 20.5264 67.628 20.8395L68.5788 19.3294C67.8108 18.7953 66.4577 17.893 64.2818 17.893C61.027 17.893 58.3939 20.2134 58.3939 24.0991C58.3939 27.8191 60.8441 30.2868 64.4463 30.2868C66.5674 30.2868 67.9754 29.4213 68.8348 28.8136V23.6939H64.2818V25.425Z" fill="#F4EEEB"/>
<path d="M76.165 28.4268C74.1719 28.4268 72.5079 26.8799 72.5079 24.0807C72.5079 21.3183 74.1719 19.753 76.165 19.753C78.1581 19.753 79.822 21.3183 79.822 24.0807C79.822 26.8799 78.1581 28.4268 76.165 28.4268ZM76.165 30.3052C79.7672 30.3052 81.9249 27.4324 81.9249 24.0807C81.9249 20.6922 79.6575 17.893 76.165 17.893C72.6725 17.893 70.4051 20.6922 70.4051 24.0807C70.4051 27.4324 72.6542 30.3052 76.165 30.3052Z" fill="#F4EEEB"/>
<path d="M82.3559 19.9555H85.7569V30.0658H87.7683V19.9555H91.1511V18.1324H82.3559V19.9555Z" fill="#F4EEEB"/>
<path d="M62.2536 46.7605H64.2832V41.5857L68.0866 34.8271H65.8375L63.2958 39.5784L60.7724 34.8271H58.3953L62.2536 41.6778V46.7605Z" fill="#F4EEEB"/>
<path d="M74.1249 45.1215C72.1318 45.1215 70.4678 43.5746 70.4678 40.7754C70.4678 38.013 72.1318 36.4477 74.1249 36.4477C76.118 36.4477 77.782 38.013 77.782 40.7754C77.782 43.5746 76.118 45.1215 74.1249 45.1215ZM74.1249 47C77.7271 47 79.8848 44.1271 79.8848 40.7754C79.8848 37.3869 77.6174 34.5877 74.1249 34.5877C70.6324 34.5877 68.365 37.3869 68.365 40.7754C68.365 44.1271 70.6141 47 74.1249 47Z" fill="#F4EEEB"/>
<path d="M81.5523 42.396C81.5523 44.8637 83.198 47 86.2151 47C89.2505 47 90.8596 44.8637 90.8596 42.396V34.8271H88.8299V42.2671C88.8299 44.0166 87.7328 45.1215 86.2151 45.1215C84.6791 45.1215 83.582 44.0166 83.582 42.2671V34.8271H81.5523V42.396Z" fill="#F4EEEB"/>
<path d="M17.0908 14.6875C17.0908 6.57582 23.7862 -1.77286e-07 32.0454 0C40.3045 1.77286e-07 46.9999 6.57582 46.9999 14.6875V32.3125C46.9999 40.4242 40.3045 47 32.0454 47C23.7862 47 17.0908 40.4242 17.0908 32.3125L17.0908 14.6875Z" fill="#A197B4"/>
<path d="M32.3125 17.0909C40.4242 17.0909 47 23.7863 47 32.0455C47 40.3047 40.4242 47 32.3125 47H14.6875C6.57582 47 -1.77286e-07 40.3047 0 32.0455C1.77286e-07 23.7863 6.57582 17.0909 14.6875 17.0909L32.3125 17.0909Z" fill="#A8D4CC" fill-opacity="0.57"/>
</svg>
